<svg width="47" height="57" viewBox="0 0 47 57" fill="none" xmlns="http://www.w3.org/2000/svg">
<path d="M47 21.2578V14.0686L23.4751 0L15.7082 4.64905V5.75837L22.0164 9.53185L8.39019 17.6806L1.12825 13.3376L0.0062338 14.0117V21.2191L7.237 25.544V38.7008L1.18061 35.0849L0 35.7822V42.9508L23.4925 57L47 42.9418V29.6713L44.5665 28.2159L38.0314 32.1237L36.7772 32.874V33.9885L38.0239 34.7336V39.7042L31.2918 43.7308V30.6528L47 21.2578ZM22.3157 47.6773L16.2069 44.024V30.9304L22.3157 34.5838V47.6773ZM23.5037 26.6727L17.1531 22.8824L30.7233 14.7672L37.0739 18.5652L23.5037 26.6727Z" fill="white"/>
</svg>
